<?xml version="1.0" encoding="UTF-8"?>
<svg width="5900px" height="1840px" viewBox="0 0 5900 1840" xmlns="http://www.w3.org/2000/svg" xmlns:xlink="http://www.w3.org/1999/xlink" version="1.1">
 <!-- Generated by Pixelmator Pro 2.0.3 -->
 <g id="Layer_x0020_2">
  <path id="Path" d="M862 634 L1155 634 C1175 634 1194 642 1208 656 1222 669 1230 688 1230 709 L1230 1673 C1230 1694 1222 1712 1208 1726 1194 1740 1175 1748 1155 1748 L191 1748 C170 1748 151 1740 138 1726 L137 1726 C124 1712 115 1693 115 1673 L115 709 C115 688 124 669 137 656 151 642 170 634 191 634 L380 634 C396 634 408 646 408 661 408 677 396 689 380 689 L191 689 C185 689 180 691 177 695 173 698 171 703 171 709 L171 1673 C171 1678 173 1683 177 1687 180 1691 185 1693 191 1693 L1155 1693 C1160 1693 1165 1691 1169 1687 1172 1683 1175 1678 1175 1673 L1175 709 C1175 703 1172 698 1169 695 1165 691 1160 689 1155 689 L862 689 831 689 827 689 827 854 C889 882 942 927 980 983 1020 1042 1043 1114 1043 1191 1043 1293 1002 1386 935 1453 868 1520 775 1562 673 1562 570 1562 478 1520 411 1453 343 1386 302 1293 302 1191 302 1114 326 1042 366 983 404 927 457 882 518 854 L518 689 483 689 C468 689 456 677 456 661 456 646 468 634 483 634 L546 634 C562 634 574 646 574 661 L574 872 C574 883 567 893 556 898 497 921 447 962 412 1014 377 1064 357 1125 357 1191 357 1278 393 1357 450 1414 507 1471 586 1506 673 1506 760 1506 839 1471 896 1414 953 1357 988 1278 988 1191 988 1125 968 1064 934 1014 899 963 849 922 791 899 780 895 771 884 771 872 L771 661 C771 646 784 634 799 634 L831 634 Z" fill="#ffffff" fill-opacity="1" stroke="none"/>
 </g>
 <g id="Layer_x0020_3">
  <path id="Path-1" d="M2551 938 L2442 938 2442 830 2551 830 Z M3516 938 L3408 938 3408 830 3516 830 Z" fill="#fa5e25" fill-opacity="1" stroke="none"/>
 </g>
 <g id="Layer_x0020_4">
  <path id="Path-2" d="M4539 1430 L4148 1430 4148 852 4262 852 4262 1321 4539 1321 Z M4930 1430 L4825 1430 4825 1408 C4807 1420 4788 1429 4767 1434 4747 1438 4725 1441 4704 1441 4683 1441 4665 1438 4649 1432 4632 1426 4618 1417 4606 1406 4594 1394 4585 1381 4578 1366 4572 1350 4568 1333 4568 1314 4568 1291 4573 1270 4584 1252 4594 1235 4608 1220 4626 1208 4644 1196 4665 1187 4689 1182 4713 1176 4738 1173 4766 1173 L4826 1173 C4826 1148 4818 1129 4802 1114 4786 1100 4763 1093 4733 1093 4719 1093 4704 1095 4688 1101 4673 1106 4658 1116 4642 1130 L4581 1067 C4603 1046 4628 1030 4658 1018 4687 1006 4717 1001 4748 1001 4777 1001 4803 1005 4825 1014 4848 1024 4866 1035 4880 1050 4898 1068 4911 1089 4918 1111 4926 1134 4930 1163 4930 1198 Z M4825 1326 L4825 1248 4778 1248 C4763 1248 4749 1249 4737 1251 4724 1253 4713 1256 4703 1261 4694 1266 4686 1271 4681 1279 4675 1286 4673 1295 4673 1305 4673 1319 4678 1331 4690 1340 4701 1349 4715 1354 4733 1354 4749 1354 4764 1352 4779 1347 4795 1342 4810 1335 4825 1326 Z M5413 1221 C5413 1250 5408 1278 5398 1305 5388 1331 5374 1355 5356 1375 5338 1395 5317 1411 5292 1422 5267 1434 5240 1440 5211 1440 5192 1440 5175 1438 5159 1433 5143 1428 5128 1419 5114 1408 L5114 1430 5010 1430 5010 829 5115 829 5116 1032 C5128 1022 5142 1014 5159 1009 5175 1003 5193 1000 5211 1000 5237 1000 5262 1006 5286 1017 5310 1028 5331 1044 5350 1064 5369 1083 5384 1107 5396 1134 5407 1160 5413 1189 5413 1221 Z M5307 1221 C5307 1201 5304 1184 5298 1168 5292 1152 5284 1138 5274 1127 5263 1116 5251 1107 5237 1101 5222 1095 5207 1092 5189 1092 5178 1092 5165 1094 5151 1099 5136 1103 5124 1109 5114 1117 L5114 1318 C5137 1339 5163 1349 5191 1349 5208 1349 5223 1346 5237 1340 5252 1333 5264 1324 5274 1313 5284 1302 5292 1288 5298 1273 5304 1257 5307 1240 5307 1221 Z M5785 1313 C5785 1334 5780 1352 5770 1368 5761 1384 5748 1398 5732 1409 5717 1420 5699 1428 5680 1433 5661 1439 5642 1442 5623 1442 5591 1442 5562 1436 5535 1424 5508 1412 5484 1393 5464 1367 L5527 1303 C5539 1319 5554 1332 5570 1341 5587 1350 5604 1354 5623 1354 5640 1354 5653 1351 5664 1345 5675 1339 5680 1330 5680 1318 5680 1305 5673 1295 5657 1286 5642 1278 5620 1270 5592 1261 5576 1257 5560 1250 5544 1243 5529 1235 5515 1226 5503 1215 5491 1205 5481 1192 5474 1178 5467 1164 5463 1148 5463 1130 5463 1109 5468 1091 5477 1075 5487 1059 5499 1045 5514 1034 5530 1023 5547 1015 5566 1009 5586 1004 5605 1001 5625 1001 5689 1001 5741 1025 5782 1073 L5720 1136 C5707 1121 5694 1109 5678 1101 5663 1092 5646 1088 5628 1088 5621 1088 5615 1088 5608 1090 5601 1092 5594 1094 5588 1097 5582 1100 5577 1105 5573 1110 5569 1115 5567 1120 5567 1127 5567 1138 5575 1147 5590 1156 5604 1164 5625 1172 5653 1180 5671 1186 5688 1192 5704 1201 5720 1209 5734 1218 5746 1229 5758 1240 5767 1252 5774 1266 5781 1280 5785 1295 5785 1313 Z M3843 1421 C3833 1427 3821 1432 3807 1436 3793 1439 3779 1441 3765 1441 3740 1441 3719 1438 3702 1432 3685 1426 3672 1417 3662 1404 3652 1391 3644 1376 3640 1356 3635 1337 3633 1314 3633 1288 L3633 1105 3578 1105 3578 1058 C3612 1044 3639 1023 3660 996 3681 968 3695 932 3703 888 L3737 888 3737 1011 3843 1011 3843 1105 3737 1105 3737 1295 C3737 1306 3738 1315 3741 1321 3744 1328 3747 1334 3752 1337 3756 1341 3761 1344 3766 1345 3772 1347 3778 1348 3784 1348 3792 1348 3802 1346 3814 1343 3825 1340 3835 1335 3843 1329 Z M3515 1430 L3409 1430 3409 1011 3515 1011 Z M3237 1221 C3237 1201 3234 1184 3228 1168 3222 1152 3214 1138 3204 1127 3193 1116 3181 1107 3167 1101 3152 1095 3136 1092 3119 1092 3108 1092 3095 1094 3080 1099 3066 1103 3054 1109 3044 1117 L3044 1318 C3067 1339 3093 1349 3121 1349 3138 1349 3153 1346 3167 1340 3182 1333 3194 1324 3204 1313 3214 1302 3222 1288 3228 1273 3234 1257 3237 1240 3237 1221 Z M3342 1221 C3342 1250 3337 1278 3328 1305 3318 1331 3304 1355 3286 1375 3268 1395 3247 1411 3222 1422 3197 1434 3170 1440 3141 1440 3122 1440 3105 1438 3089 1433 3073 1428 3058 1419 3044 1408 L3044 1430 2940 1430 2940 829 3045 829 3046 1032 C3058 1022 3072 1014 3089 1009 3105 1003 3123 1000 3141 1000 3167 1000 3192 1006 3216 1017 3240 1028 3261 1044 3280 1064 3299 1083 3314 1107 3325 1134 3337 1160 3342 1189 3342 1221 Z M2878 1421 C2868 1427 2855 1432 2841 1436 2827 1439 2813 1441 2799 1441 2775 1441 2754 1438 2737 1432 2720 1426 2707 1417 2697 1404 2686 1391 2679 1376 2674 1356 2670 1337 2668 1314 2668 1288 L2668 1105 2613 1105 2613 1058 C2646 1044 2674 1023 2695 996 2716 968 2730 932 2738 888 L2772 888 2772 1011 2878 1011 2878 1105 2772 1105 2772 1295 C2772 1306 2773 1315 2776 1321 2779 1328 2782 1334 2786 1337 2791 1341 2796 1344 2801 1345 2807 1347 2813 1348 2819 1348 2827 1348 2837 1346 2849 1343 2860 1340 2870 1335 2878 1329 Z M2550 1430 L2444 1430 2444 1011 2550 1011 Z M2271 1222 C2271 1202 2268 1185 2262 1169 2256 1153 2248 1139 2238 1128 2227 1116 2215 1108 2201 1102 2186 1096 2171 1093 2153 1093 2142 1093 2129 1095 2115 1100 2101 1104 2089 1110 2079 1118 L2079 1319 C2102 1339 2127 1350 2155 1350 2172 1350 2187 1347 2201 1340 2216 1334 2228 1325 2238 1314 2248 1302 2256 1289 2262 1273 2268 1258 2271 1241 2271 1222 Z M2377 1222 C2377 1251 2372 1279 2362 1306 2353 1332 2339 1355 2321 1375 2303 1395 2281 1411 2257 1423 2232 1435 2205 1441 2176 1441 2157 1441 2140 1438 2124 1433 2108 1428 2093 1420 2079 1409 L2080 1612 1975 1612 1975 1011 2080 1011 2080 1033 C2092 1023 2107 1015 2123 1009 2140 1004 2158 1001 2176 1001 2202 1001 2226 1006 2251 1018 2275 1029 2296 1045 2315 1064 2334 1084 2349 1107 2360 1134 2372 1161 2377 1190 2377 1222 Z M1910 1278 C1910 1300 1905 1320 1895 1340 1886 1359 1873 1377 1856 1392 1839 1407 1819 1419 1796 1428 1773 1436 1747 1441 1719 1441 1694 1441 1671 1439 1651 1437 1631 1434 1613 1429 1595 1423 1577 1417 1560 1408 1544 1399 1528 1389 1511 1377 1494 1363 L1574 1282 C1597 1302 1619 1315 1642 1323 1664 1331 1688 1335 1714 1335 1725 1335 1735 1334 1744 1330 1753 1327 1762 1323 1769 1318 1776 1313 1781 1306 1785 1299 1789 1292 1792 1284 1792 1275 1792 1266 1790 1258 1786 1250 1783 1243 1777 1236 1768 1229 1760 1223 1748 1216 1732 1209 1717 1202 1697 1194 1673 1185 1652 1178 1631 1169 1612 1159 1592 1149 1575 1137 1560 1123 1545 1109 1534 1093 1525 1074 1516 1055 1511 1033 1511 1007 1511 983 1516 960 1526 939 1536 918 1550 901 1567 886 1584 871 1604 860 1627 852 1650 843 1674 839 1701 839 1745 839 1783 845 1813 857 1844 868 1871 885 1894 907 L1816 986 C1802 972 1785 961 1768 954 1750 947 1729 943 1705 943 1694 943 1683 944 1674 948 1664 951 1656 956 1650 961 1643 967 1637 973 1633 981 1629 988 1627 996 1627 1004 1627 1013 1629 1022 1633 1029 1637 1037 1643 1044 1652 1051 1662 1058 1674 1065 1689 1072 1704 1079 1723 1087 1746 1095 1775 1105 1800 1116 1820 1128 1841 1140 1858 1153 1871 1168 1884 1182 1894 1199 1900 1217 1906 1235 1910 1255 1910 1278 Z" fill="#ffffff" fill-opacity="1" stroke="none"/>
 </g>
 <g id="Layer_x0020_5">
  <path id="Path-3" d="M679 758 L703 758 703 671 683 671 655 682 659 697 679 689 Z M493 294 L548 294 548 93 501 93 436 118 446 153 492 135 493 135 Z M720 275 C734 275 741 290 741 317 741 345 734 359 721 359 707 359 699 345 699 317 699 289 708 275 720 275 Z M721 254 C682 254 664 282 664 317 664 352 681 380 720 380 758 380 776 354 776 316 776 283 761 254 721 254 Z M550 424 C569 424 578 443 578 479 578 516 569 535 551 535 532 535 521 517 522 480 521 442 533 424 550 424 Z M551 395 C499 395 475 432 475 480 475 526 498 564 549 564 600 564 625 529 625 479 625 434 604 395 551 395 Z" fill="#ee4d12" fill-opacity="1" stroke="none"/>
 </g>
 <g id="Layer_x0020_6">
  <path id="Path-4" d="M767 577 L800 577 800 456 772 456 733 471 739 492 767 481 Z" fill="#ee4d12" fill-opacity="1" stroke="none"/>
 </g>
 <g id="Layer_x0020_7">
  <g id="_1929238182096">
   <path id="Path-5" d="M570 1080 C710 1137 887 970 955 1102 882 1275 704 1185 570 1080 Z" fill="#b83100" fill-opacity="1" stroke="none"/>
   <path id="Path-6" d="M391 1102 C383 1129 378 1157 378 1187 378 1227 386 1265 400 1300 415 1336 437 1368 464 1395 492 1423 524 1445 560 1459 595 1474 633 1482 673 1482 713 1482 751 1474 785 1459 821 1445 854 1423 881 1395 908 1368 930 1336 945 1300 959 1265 967 1227 967 1187 967 1157 963 1129 955 1102 841 1195 745 1173 662 1130 580 1089 450 972 391 1102 Z" fill="#fa5e25" fill-opacity="1" stroke="none"/>
  </g>
 </g>
</svg>
